<svg width="48" height="32" viewBox="0 0 48 32" fill="none" xmlns="http://www.w3.org/2000/svg">
<g id="cirrus-light-large">
<rect id="card_bg" width="48" height="32" rx="4" fill="#DFE3E8"/>
<g id="maestro">
<g id="Group" opacity="0.01">
<rect id="Rectangle" x="4.65002" y="3.19995" width="38.71" height="25.6" fill="white"/>
</g>
<rect id="Rectangle_2" x="18.9" y="7.65991" width="10.21" height="16.68" fill="#0379BF"/>
<path id="Path" d="M20 16.0001C19.9831 12.7536 21.4577 9.67911 24 7.66006C19.6502 4.23935 13.4019 4.73608 9.64729 8.80106C5.89264 12.866 5.89264 19.1341 9.64729 23.1991C13.4019 27.264 19.6502 27.7608 24 24.3401C21.4577 22.321 19.9831 19.2465 20 16.0001Z" fill="#0067B3"/>
<path id="Shape" fill-rule="evenodd" clip-rule="evenodd" d="M40.14 22.2299V22.5699H40.08V22.2299H39.94V22.1599H40.29V22.2299H40.14ZM40.82 22.1599V22.5699H40.75V22.2599L40.64 22.5299H40.56L40.44 22.2599V22.5699H40.37V22.1599H40.47L40.6 22.4499L40.72 22.1599H40.82Z" fill="#00A1DE"/>
<path id="Path_2" d="M41.16 16C41.1574 20.0593 38.8389 23.7614 35.1879 25.5358C31.5369 27.3102 27.1935 26.846 24 24.34C28.6001 20.7179 29.3967 14.0543 25.78 9.44999C25.2616 8.78326 24.6638 8.18216 24 7.65999C27.1935 5.15398 31.5369 4.68973 35.1879 6.46416C38.8389 8.23859 41.1574 11.9406 41.16 16Z" fill="#00A1DE"/>
</g>
</g>
</svg>
