<svg width="48" height="32" viewBox="0 0 48 32" fill="none" xmlns="http://www.w3.org/2000/svg">
<g id="paypal-light-large">
<rect id="card_bg" width="48" height="32" rx="4" fill="#DFE3E8"/>
<g id="paypal">
<path id="Path" d="M20.34 25.3199L20.69 23.1199H19.91H16.23L18.79 6.85993C18.7969 6.80955 18.8217 6.76336 18.86 6.72993C18.9002 6.69887 18.9493 6.68136 19 6.67993H25.21C27.28 6.67993 28.7 7.10993 29.45 7.95993C29.7819 8.31646 30.0131 8.75473 30.12 9.22993C30.2367 9.80744 30.2367 10.4024 30.12 10.9799V11.4799L30.47 11.6799C30.7365 11.8127 30.977 11.9922 31.18 12.2099C31.4857 12.5789 31.683 13.0255 31.75 13.4999C31.8249 14.1201 31.7979 14.7484 31.67 15.3599C31.5382 16.1027 31.2776 16.8168 30.9 17.4699C30.5949 17.9936 30.1826 18.4468 29.69 18.7999C29.1943 19.138 28.6424 19.3852 28.06 19.5299C27.4063 19.6948 26.7342 19.7755 26.06 19.7699H25.57C25.2266 19.77 24.894 19.8903 24.63 20.1099C24.3647 20.3335 24.1904 20.6466 24.14 20.9899V21.1899L23.53 25.0699V25.2199C23.5373 25.2461 23.5373 25.2738 23.53 25.2999H23.47L20.34 25.3199Z" fill="#253D80"/>
<path id="Path_2" d="M30.8 11.0801L30.74 11.4501C29.92 15.6501 27.11 17.1101 23.53 17.1101H21.71C21.2721 17.1095 20.8989 17.4276 20.83 17.8601L19.9 23.7801L19.63 25.4601C19.6097 25.5946 19.6488 25.7313 19.737 25.8349C19.8252 25.9384 19.954 25.9987 20.09 26.0001H23.33C23.7142 25.9997 24.0409 25.7197 24.1 25.3401V25.1801L24.71 21.3101V21.1001C24.7646 20.722 25.088 20.4411 25.47 20.4401H26C29.13 20.4401 31.59 19.1701 32.3 15.4401C32.6842 14.1652 32.4472 12.784 31.66 11.7101C31.4102 11.4539 31.1196 11.241 30.8 11.0801V11.0801Z" fill="#189BD7"/>
<path id="Path_3" d="M29.94 10.7401L29.56 10.6401L29.14 10.5601C28.6105 10.4809 28.0754 10.4441 27.54 10.4501H22.66C22.546 10.447 22.4329 10.471 22.33 10.5201C22.0981 10.6286 21.9365 10.8467 21.9 11.1001L20.9 17.6701V17.8601C20.9689 17.4276 21.3421 17.1096 21.78 17.1101H23.6C27.18 17.1101 29.99 15.6501 30.81 11.4501L30.87 11.0801C30.6546 10.9688 30.4306 10.8751 30.2 10.8001L29.94 10.7401Z" fill="#242E65"/>
<path id="Path_4" d="M21.9 11.1C21.9365 10.8466 22.0981 10.6286 22.33 10.52C22.4329 10.4709 22.546 10.4469 22.66 10.45H27.54C28.0754 10.444 28.6105 10.4808 29.14 10.56L29.56 10.64L29.94 10.74L30.13 10.8C30.3606 10.8751 30.5846 10.9687 30.8 11.08C31.1251 9.83063 30.8271 8.50118 30 7.51C29 6.45 27.36 6 25.22 6H19C18.5621 5.99947 18.1889 6.31756 18.12 6.75L15.53 23.16C15.5068 23.3148 15.5519 23.472 15.6536 23.5909C15.7553 23.7098 15.9035 23.7788 16.06 23.78H19.9L20.9 17.67L21.9 11.1Z" fill="#253D80"/>
</g>
</g>
</svg>
